<svg width="128" height="153" viewBox="0 0 128 153" fill="none" xmlns="http://www.w3.org/2000/svg">
<path d="M0 29H4V33H0V29Z" fill="#212121"/>
<path d="M0 25H4V29H0V25Z" fill="#212121"/>
<path d="M4 25H8V29H4V25Z" fill="#212121"/>
<path d="M8 25H12V29H8V25Z" fill="#212121"/>
<path d="M12 25H16V29H12V25Z" fill="#212121"/>
<path d="M16 25H20V29H16V25Z" fill="#212121"/>
<path d="M20 25H24V29H20V25Z" fill="#212121"/>
<path d="M24 25H28V29H24V25Z" fill="#212121"/>
<path d="M28 25H32V29H28V25Z" fill="#212121"/>
<path d="M96 125H100V129H96V125Z" fill="#212121"/>
<path d="M96 129H100V133H96V129Z" fill="#212121"/>
<path d="M96 133H100V137H96V133Z" fill="#212121"/>
<path d="M96 137H100V141H96V137Z" fill="#212121"/>
<path d="M96 141H100V145H96V141Z" fill="#212121"/>
<path d="M96 145H100V149H96V145Z" fill="#212121"/>
<path d="M96 149H100V153H96V149Z" fill="#212121"/>
<path d="M92 149H96V153H92V149Z" fill="#212121"/>
<path d="M88 149H92V153H88V149Z" fill="#212121"/>
<path d="M84 149H88V153H84V149Z" fill="#212121"/>
<path d="M80 149H84V153H80V149Z" fill="#212121"/>
<path d="M76 149H80V153H76V149Z" fill="#212121"/>
<path d="M72 149H76V153H72V149Z" fill="#212121"/>
<path d="M68 149H72V153H68V149Z" fill="#212121"/>
<path d="M64 149H68V153H64V149Z" fill="#212121"/>
<path d="M60 149H64V153H60V149Z" fill="#212121"/>
<path d="M56 149H60V153H56V149Z" fill="#212121"/>
<path d="M52 149H56V153H52V149Z" fill="#212121"/>
<path d="M48 149H52V153H48V149Z" fill="#212121"/>
<path d="M44 149H48V153H44V149Z" fill="#212121"/>
<path d="M40 149H44V153H40V149Z" fill="#212121"/>
<path d="M36 149H40V153H36V149Z" fill="#212121"/>
<path d="M32 149H36V153H32V149Z" fill="#212121"/>
<path d="M28 149H32V153H28V149Z" fill="#212121"/>
<path d="M24 149H28V153H24V149Z" fill="#212121"/>
<path d="M20 149H24V153H20V149Z" fill="#212121"/>
<path d="M16 149H20V153H16V149Z" fill="#212121"/>
<path d="M12 149H16V153H12V149Z" fill="#212121"/>
<path d="M8 149H12V153H8V149Z" fill="#212121"/>
<path d="M0 33H4V37H0V33Z" fill="#212121"/>
<path d="M0 37H4V41H0V37Z" fill="#212121"/>
<path d="M0 41H4V45H0V41Z" fill="#212121"/>
<path d="M0 45H4V49H0V45Z" fill="#212121"/>
<path d="M0 49H4V53H0V49Z" fill="#212121"/>
<path d="M0 53H4V57H0V53Z" fill="#212121"/>
<path d="M0 57H4V61H0V57Z" fill="#212121"/>
<path d="M0 61H4V65H0V61Z" fill="#212121"/>
<path d="M0 65H4V69H0V65Z" fill="#212121"/>
<path d="M0 69H4V73H0V69Z" fill="#212121"/>
<path d="M0 73H4V77H0V73Z" fill="#212121"/>
<path d="M0 77H4V81H0V77Z" fill="#212121"/>
<path d="M0 81H4V85H0V81Z" fill="#212121"/>
<path d="M0 85H4V89H0V85Z" fill="#212121"/>
<path d="M0 89H4V93H0V89Z" fill="#212121"/>
<path d="M0 93H4V97H0V93Z" fill="#212121"/>
<path d="M0 97H4V101H0V97Z" fill="#212121"/>
<path d="M0 101H4V105H0V101Z" fill="#212121"/>
<path d="M0 105H4V109H0V105Z" fill="#212121"/>
<path d="M0 109H4V113H0V109Z" fill="#212121"/>
<path d="M0 113H4V117H0V113Z" fill="#212121"/>
<path d="M0 117H4V121H0V117Z" fill="#212121"/>
<path d="M0 121H4V125H0V121Z" fill="#212121"/>
<path d="M0 125H4V129H0V125Z" fill="#212121"/>
<path d="M0 129H4V133H0V129Z" fill="#212121"/>
<path d="M0 133H4V137H0V133Z" fill="#212121"/>
<path d="M0 137H4V141H0V137Z" fill="#212121"/>
<path d="M0 141H4V145H0V141Z" fill="#212121"/>
<path d="M0 145H4V149H0V145Z" fill="#212121"/>
<path d="M0 149H4V153H0V149Z" fill="#212121"/>
<path d="M4 149H8V153H4V149Z" fill="#212121"/>
<path d="M28 4H32V8H28V4Z" fill="#212121"/>
<path d="M28 0H32V4H28V0Z" fill="#212121"/>
<path d="M32 0H36V4H32V0Z" fill="#212121"/>
<path d="M36 0H40V4H36V0Z" fill="#212121"/>
<path d="M40 0H44V4H40V0Z" fill="#212121"/>
<path d="M44 0H48V4H44V0Z" fill="#212121"/>
<path d="M48 0H52V4H48V0Z" fill="#212121"/>
<path d="M52 0H56V4H52V0Z" fill="#212121"/>
<path d="M56 0H60V4H56V0Z" fill="#212121"/>
<path d="M60 0H64V4H60V0Z" fill="#212121"/>
<path d="M64 0H68V4H64V0Z" fill="#212121"/>
<path d="M68 0H72V4H68V0Z" fill="#212121"/>
<path d="M72 0H76V4H72V0Z" fill="#212121"/>
<path d="M76 0H80V4H76V0Z" fill="#212121"/>
<path d="M80 0H84V4H80V0Z" fill="#212121"/>
<path d="M84 0H88V4H84V0Z" fill="#212121"/>
<path d="M88 0H92V4H88V0Z" fill="#212121"/>
<path d="M92 0H96V4H92V0Z" fill="#212121"/>
<path d="M96 0H100V4H96V0Z" fill="#212121"/>
<path d="M100 0H104V4H100V0Z" fill="#212121"/>
<path d="M104 4H108V8H104V4Z" fill="#212121"/>
<path d="M108 8H112V12H108V8Z" fill="#212121"/>
<path d="M112 12H116V16H112V12Z" fill="#212121"/>
<path d="M116 16H120V20H116V16Z" fill="#212121"/>
<path d="M120 20H124V24H120V20Z" fill="#212121"/>
<path d="M124 24H128V28H124V24Z" fill="#212121"/>
<path d="M124 28H128V32H124V28Z" fill="#212121"/>
<path d="M124 32H128V36H124V32Z" fill="#212121"/>
<path d="M124 36H128V40H124V36Z" fill="#212121"/>
<path d="M124 40H128V44H124V40Z" fill="#212121"/>
<path d="M124 44H128V48H124V44Z" fill="#212121"/>
<path d="M124 48H128V52H124V48Z" fill="#212121"/>
<path d="M124 52H128V56H124V52Z" fill="#212121"/>
<path d="M124 56H128V60H124V56Z" fill="#212121"/>
<path d="M124 60H128V64H124V60Z" fill="#212121"/>
<path d="M124 64H128V68H124V64Z" fill="#212121"/>
<path d="M124 68H128V72H124V68Z" fill="#212121"/>
<path d="M124 72H128V76H124V72Z" fill="#212121"/>
<path d="M124 76H128V80H124V76Z" fill="#212121"/>
<path d="M124 80H128V84H124V80Z" fill="#212121"/>
<path d="M124 84H128V88H124V84Z" fill="#212121"/>
<path d="M124 88H128V92H124V88Z" fill="#212121"/>
<path d="M124 92H128V96H124V92Z" fill="#212121"/>
<path d="M124 96H128V100H124V96Z" fill="#212121"/>
<path d="M124 100H128V104H124V100Z" fill="#212121"/>
<path d="M124 104H128V108H124V104Z" fill="#212121"/>
<path d="M124 108H128V112H124V108Z" fill="#212121"/>
<path d="M124 112H128V116H124V112Z" fill="#212121"/>
<path d="M124 116H128V120H124V116Z" fill="#212121"/>
<path d="M124 120H128V124H124V120Z" fill="#212121"/>
<path d="M124 124H128V128H124V124Z" fill="#212121"/>
<path d="M120 124H124V128H120V124Z" fill="#212121"/>
<path d="M116 124H120V128H116V124Z" fill="#212121"/>
<path d="M112 124H116V128H112V124Z" fill="#212121"/>
<path d="M108 124H112V128H108V124Z" fill="#212121"/>
<path d="M104 124H108V128H104V124Z" fill="#212121"/>
<path d="M100 124H104V128H100V124Z" fill="#212121"/>
<path d="M96 124H100V128H96V124Z" fill="#212121"/>
<path d="M92 124H96V128H92V124Z" fill="#212121"/>
<path d="M88 124H92V128H88V124Z" fill="#212121"/>
<path d="M84 124H88V128H84V124Z" fill="#212121"/>
<path d="M80 124H84V128H80V124Z" fill="#212121"/>
<path d="M76 124H80V128H76V124Z" fill="#212121"/>
<path d="M72 124H76V128H72V124Z" fill="#212121"/>
<path d="M68 124H72V128H68V124Z" fill="#212121"/>
<path d="M64 124H68V128H64V124Z" fill="#212121"/>
<path d="M60 124H64V128H60V124Z" fill="#212121"/>
<path d="M56 124H60V128H56V124Z" fill="#212121"/>
<path d="M52 124H56V128H52V124Z" fill="#212121"/>
<path d="M48 124H52V128H48V124Z" fill="#212121"/>
<path d="M44 124H48V128H44V124Z" fill="#212121"/>
<path d="M40 124H44V128H40V124Z" fill="#212121"/>
<path d="M36 124H40V128H36V124Z" fill="#212121"/>
<path d="M120 24H124V28H120V24Z" fill="#212121"/>
<path d="M116 24H120V28H116V24Z" fill="#212121"/>
<path d="M112 24H116V28H112V24Z" fill="#212121"/>
<path d="M108 24H112V28H108V24Z" fill="#212121"/>
<path d="M104 24H108V28H104V24Z" fill="#212121"/>
<path d="M100 24H104V28H100V24Z" fill="#212121"/>
<path d="M100 20H104V24H100V20Z" fill="#212121"/>
<path d="M100 16H104V20H100V16Z" fill="#212121"/>
<path d="M100 12H104V16H100V12Z" fill="#212121"/>
<path d="M100 8H104V12H100V8Z" fill="#212121"/>
<path d="M100 4H104V8H100V4Z" fill="#212121"/>
<path d="M28 8H32V12H28V8Z" fill="#212121"/>
<path d="M28 12H32V16H28V12Z" fill="#212121"/>
<path d="M28 16H32V20H28V16Z" fill="#212121"/>
<path d="M28 20H32V24H28V20Z" fill="#212121"/>
<path d="M28 24H32V28H28V24Z" fill="#212121"/>
<path d="M28 28H32V32H28V28Z" fill="#212121"/>
<path d="M28 32H32V36H28V32Z" fill="#212121"/>
<path d="M28 36H32V40H28V36Z" fill="#212121"/>
<path d="M28 40H32V44H28V40Z" fill="#212121"/>
<path d="M28 44H32V48H28V44Z" fill="#212121"/>
<path d="M28 48H32V52H28V48Z" fill="#212121"/>
<path d="M28 52H32V56H28V52Z" fill="#212121"/>
<path d="M28 56H32V60H28V56Z" fill="#212121"/>
<path d="M28 60H32V64H28V60Z" fill="#212121"/>
<path d="M28 64H32V68H28V64Z" fill="#212121"/>
<path d="M28 68H32V72H28V68Z" fill="#212121"/>
<path d="M28 72H32V76H28V72Z" fill="#212121"/>
<path d="M28 76H32V80H28V76Z" fill="#212121"/>
<path d="M28 80H32V84H28V80Z" fill="#212121"/>
<path d="M28 84H32V88H28V84Z" fill="#212121"/>
<path d="M28 88H32V92H28V88Z" fill="#212121"/>
<path d="M28 92H32V96H28V92Z" fill="#212121"/>
<path d="M28 96H32V100H28V96Z" fill="#212121"/>
<path d="M28 100H32V104H28V100Z" fill="#212121"/>
<path d="M28 104H32V108H28V104Z" fill="#212121"/>
<path d="M28 108H32V112H28V108Z" fill="#212121"/>
<path d="M28 112H32V116H28V112Z" fill="#212121"/>
<path d="M28 116H32V120H28V116Z" fill="#212121"/>
<path d="M28 120H32V124H28V120Z" fill="#212121"/>
<path d="M28 124H32V128H28V124Z" fill="#212121"/>
<path d="M32 124H36V128H32V124Z" fill="#212121"/>
</svg>
