<svg width="250" height="250" viewBox="0 0 250 250" fill="none" xmlns="http://www.w3.org/2000/svg">
<path d="M125.5 9C125.5 9 126.082 65.3023 151.611 80.0986C177.139 94.8949 226 67.25 226 67.25C226 67.25 177.721 95.9074 177.721 125.5C177.721 155.093 226 183.75 226 183.75C226 183.75 177.139 156.105 151.611 170.901C126.082 185.698 125.5 242 125.5 242C125.5 242 124.918 185.698 99.3893 170.901C73.8609 156.105 25 183.75 25 183.75C25 183.75 73.2787 155.093 73.2787 125.5C73.2787 95.9074 25 67.25 25 67.25C25 67.25 73.8609 94.8949 99.3893 80.0986C124.918 65.3023 125.5 9 125.5 9Z" fill="#85B3FF"/>
</svg>
