<svg width="356" height="411" viewBox="0 0 356 411" fill="none" xmlns="http://www.w3.org/2000/svg">
<path d="M178 0C178 0 179.031 99.3144 224.246 125.414C269.46 151.514 356 102.75 356 102.75C356 102.75 270.492 153.3 270.492 205.5C270.492 257.7 356 308.25 356 308.25C356 308.25 269.46 259.486 224.246 285.586C179.031 311.686 178 411 178 411C178 411 176.969 311.686 131.754 285.586C86.5397 259.486 0 308.25 0 308.25C0 308.25 85.5085 257.7 85.5085 205.5C85.5085 153.3 0 102.75 0 102.75C0 102.75 86.5397 151.514 131.754 125.414C176.969 99.3144 178 0 178 0Z" fill="black"/>
</svg>
